inDegrees=yes
name=ik_OwnShooting_orientations.mot
DataType=double
version=3
OpenSimVersion=4.3-2021-08-27-4bc7ad9
endheader
time	pelvis_tilt	pelvis_list	pelvis_rotation	pelvis_tx	pelvis_ty	pelvis_tz	hip_flexion_r	hip_adduction_r	hip_rotation_r	knee_angle_r	knee_angle_r_beta	ankle_angle_r	subtalar_angle_r	mtp_angle_r	hip_flexion_l	hip_adduction_l	hip_rotation_l	knee_angle_l	knee_angle_l_beta	ankle_angle_l	subtalar_angle_l	mtp_angle_l	lumbar_extension	lumbar_bending	lumbar_rotation	arm_flex_r	arm_add_r	arm_rot_r	elbow_flex_r	pro_sup_r	wrist_flex_r	wrist_dev_r	arm_flex_l	arm_add_l	arm_rot_l	elbow_flex_l	pro_sup_l	wrist_flex_l	wrist_dev_l
3	0.4259959538519888	0.6229380505252292	150.1849642909071	0	0.9399999999999999	0	5.544117346512992	-2.630695105667665	0	12.56946584773179	0.2193785642599	-1.557282283909156	0	0	5.544117346512992	-2.630695105667665	0	12.56946584773179	0.2193785642599	-1.557282283909156	0	0	10.96772696831483	-3.440141299557155	4.665639981603086	0	-0.804892327913683	0	16.90563408686623	16.00032786318553	0	0	-15.92826665605273	-18.76323919345089	-11.69461776369567	0.009799932190241306	16.00032786318553	0	0
3.01	0.4218758446952519	0.6102936069500189	150.1807183334305	0	0.9399999999999999	0	5.553094412534887	-2.635095711680254	0	12.58568806750138	0.2196616954068615	-1.559899341679885	0	0	5.553094412534887	-2.635095711680254	0	12.58568806750138	0.2196616954068615	-1.559899341679885	0	0	10.97989843753484	-3.451280908072181	4.687926657266175	0	-0.806113230153401	0	16.92940894993176	16.02285760401139	0	0	-15.98462042738888	-18.65019848377029	-11.75474881687795	0.009788279659222092	16.02285760401139	0	0
3.02	0.4371368441486155	0.6239224651803731	150.1836630469189	0	0.9399999999999999	0	5.563146057038672	-2.640016491115094	0	12.6038196410724	0.2199781510642432	-1.562824416741721	0	0	5.563146057038672	-2.640016491115094	0	12.6038196410724	0.2199781510642432	-1.562824416741721	0	0	11.01709090314779	-3.438769381058635	4.690492000747917	0	-0.8074840411593913	0	16.95594730806985	16.04799162471923	0	0	-15.94040728347254	-18.73039018050006	-11.78712979640163	0.009867129143448205	16.04799162471923	0	0
3.03	0.4382607757270858	0.6354242633527095	150.1899078303407	0	0.9399999999999999	0	5.565227639252196	-2.641027077209976	0	12.60755479985431	0.2200433418830724	-1.563423587958384	0	0	5.565227639252196	-2.641027077209976	0	12.60755479985431	0.2200433418830724	-1.563423587958384	0	0	11.02376704662523	-3.459337976949856	4.702568486611759	0	-0.8077726975349827	0	16.96136303789929	16.05310526791362	0	0	-15.9841847026548	-18.67003163226327	-11.80575850740325	0.009836526526822761	16.05310526791362	0	0
3.04	0.4591906248944608	0.6266370796654036	150.201094737562	0	0.9399999999999999	0	5.574309718014097	-2.645453467298582	0	12.62387715731159	0.2203282207623893	-1.566051135075294	0	0	5.574309718014097	-2.645453467298582	0	12.62387715731159	0.2203282207623893	-1.566051135075294	0	0	11.06537291041266	-3.476638600477164	4.678282931884215	0	-0.8090228318488569	0	16.98514089287603	16.07558883113369	0	0	-15.79465217970986	-18.90788741456324	-11.75307553755476	0.009974014028175745	16.07558883113369	0	0
3.05	0.4455288719755863	0.6403221617410456	150.2028489350659	0	0.9399999999999999	0	5.576592243119749	-2.646561740752247	0	12.62796844630141	0.2203996272259124	-1.566708200264238	0	0	5.576592243119749	-2.646561740752247	0	12.62796844630141	0.2203996272259124	-1.566708200264238	0	0	11.07932268893402	-3.502609802658246	4.697178390456794	0	-0.8093392225251975	0	16.99107487819776	16.08119101225174	0	0	-15.83139608174758	-18.89540434735382	-11.76994672431447	0.009960859636553273	16.08119101225174	0	0
3.06	0.4507266237121865	0.6310709046814911	150.177389499541	0	0.9399999999999999	0	5.580830563260314	-2.648627543953392	0	12.63557864009251	0.2205324501642819	-1.567934345732897	0	0	5.580830563260314	-2.648627543953392	0	12.63557864009251	0.2205324501642819	-1.567934345732897	0	0	11.09644076814914	-3.536156234379291	4.707505860032065	0	-0.8099220855107897	0	17.00216099083255	16.0916701553364	0	0	-15.79573322629474	-18.91249878688818	-11.80483751619026	0.01002773397154622	16.0916701553364	0	0
3.07	0.48803314222521	0.6146419702775738	150.200040957709	0	0.9399999999999999	0	5.592771517181642	-2.654441332176545	0	12.65698974205375	0.2209061443899857	-1.571384052076958	0	0	5.592771517181642	-2.654441332176545	0	12.65698974205375	0.2209061443899857	-1.571384052076958	0	0	11.1261756604836	-3.57078254236832	4.709161176122342	0	-0.8115689027325682	0	17.03332537206914	16.12112066428695	0	0	-15.58266870099959	-19.05337461265222	-11.72021676203729	0.01018120777159963	16.12112066428695	0	0
3.08	0.5005406191361581	0.614624599279412	150.1980267041618	0	0.9399999999999999	0	5.602352153005013	-2.65911210074742	0	12.67416250427708	0.2212058656324449	-1.574156359579483	0	0	5.602352153005013	-2.65911210074742	0	12.67416250427708	0.2212058656324449	-1.574156359579483	0	0	11.12625814701178	-3.551492342680072	4.705463367874778	0	-0.8128860603089252	0	17.05835960261253	16.14478258714245	0	0	-15.39932437751421	-19.17798367454434	-11.65147734206745	0.01026404012940734	16.14478258714245	0	0
3.09	0.4841716093974605	0.606253623861898	150.1841636239074	0	0.9399999999999999	0	5.605340260918601	-2.660564703747124	0	12.67950664069012	0.2212991384085283	-1.57501770763381	0	0	5.605340260918601	-2.660564703747124	0	12.67950664069012	0.2212991384085283	-1.57501770763381	0	0	11.13184736700878	-3.547969498662082	4.707841525023714	0	-0.8132990099625075	0	17.06612432548612	16.15211240217549	0	0	-15.40071268657087	-19.10152966832588	-11.66850733597819	0.01027546173987778	16.15211240217549	0	0
3.1	0.4990000966523504	0.6021194787557501	150.1796399565598	0	0.9399999999999999	0	5.61891791923597	-2.667210900975097	0	12.70386233113461	0.221724225398381	-1.578966740096829	0	0	5.61891791923597	-2.667210900975097	0	12.70386233113461	0.221724225398381	-1.578966740096829	0	0	11.09137469300829	-3.505684656730213	4.709708447559708	0	-0.8151488939049175	0	17.10179240340913	16.18585835307332	0	0	-15.2725603760783	-19.0771973709101	-11.59404262984265	0.01031312613442316	16.18585835307332	0	0
3.11	0.4960674807606116	0.6124002535649348	150.1601549654704	0	0.9399999999999999	0	5.623203339135103	-2.669299754414119	0	12.71152437457605	0.2218579532838651	-1.580206186891167	0	0	5.623203339135103	-2.669299754414119	0	12.71152437457605	0.2218579532838651	-1.580206186891167	0	0	11.0953584490489	-3.494948580612487	4.707132395116556	0	-0.8157375660278791	0	17.11296038144829	16.1964064776238	0	0	-15.30401651914481	-19.09640480233889	-11.65374652957364	0.01027964118479982	16.1964064776238	0	0
3.12	0.5037971542340459	0.6278285810110484	150.1616694872829	0	0.9399999999999999	0	5.625308952613479	-2.670319840656334	0	12.71527575975738	0.2219234273067897	-1.580810350586403	0	0	5.625308952613479	-2.670319840656334	0	12.71527575975738	0.2219234273067897	-1.580810350586403	0	0	11.10998634230674	-3.51688525061696	4.709644594897514	0	-0.8160304665785157	0	17.11839131541957	16.20152533375727	0	0	-15.31386606647709	-19.04762340755506	-11.70912721321099	0.01028377143309745	16.20152533375727	0	0
3.13	0.5212987624175207	0.6047524357721108	150.1561503970922	0	0.9399999999999999	0	5.640772565514562	-2.677889295054586	0	12.7429536081798	0.2224064968916289	-1.585307262135264	0	0	5.640772565514562	-2.677889295054586	0	12.7429536081798	0.2224064968916289	-1.585307262135264	0	0	11.06314744114884	-3.550414622556878	4.694833150708212	0	-0.8181362279562157	0	17.15893624700525	16.23987032450694	0	0	-15.1987277987548	-19.03227675684698	-11.790473564989	0.0103275534032567	16.23987032450694	0	0
